%TF.GenerationSoftware,KiCad,Pcbnew,9.0.2*%
%TF.CreationDate,2025-06-28T00:08:34+08:00*%
%TF.ProjectId,KAPTON-HEATERV2,4b415054-4f4e-42d4-9845-415445525632,rev?*%
%TF.SameCoordinates,Original*%
%TF.FileFunction,Paste,Top*%
%TF.FilePolarity,Positive*%
%FSLAX46Y46*%
G04 Gerber Fmt 4.6, Leading zero omitted, Abs format (unit mm)*
G04 Created by KiCad (PCBNEW 9.0.2) date 2025-06-28 00:08:34*
%MOMM*%
%LPD*%
G01*
G04 APERTURE LIST*
G04 Aperture macros list*
%AMRoundRect*
0 Rectangle with rounded corners*
0 $1 Rounding radius*
0 $2 $3 $4 $5 $6 $7 $8 $9 X,Y pos of 4 corners*
0 Add a 4 corners polygon primitive as box body*
4,1,4,$2,$3,$4,$5,$6,$7,$8,$9,$2,$3,0*
0 Add four circle primitives for the rounded corners*
1,1,$1+$1,$2,$3*
1,1,$1+$1,$4,$5*
1,1,$1+$1,$6,$7*
1,1,$1+$1,$8,$9*
0 Add four rect primitives between the rounded corners*
20,1,$1+$1,$2,$3,$4,$5,0*
20,1,$1+$1,$4,$5,$6,$7,0*
20,1,$1+$1,$6,$7,$8,$9,0*
20,1,$1+$1,$8,$9,$2,$3,0*%
G04 Aperture macros list end*
%ADD10C,0.000000*%
%ADD11R,3.050000X2.030000*%
%ADD12R,8.380000X10.660000*%
%ADD13RoundRect,0.250000X1.000000X-1.400000X1.000000X1.400000X-1.000000X1.400000X-1.000000X-1.400000X0*%
%ADD14RoundRect,0.250000X0.475000X-0.250000X0.475000X0.250000X-0.475000X0.250000X-0.475000X-0.250000X0*%
%ADD15R,3.420000X2.640000*%
%ADD16RoundRect,0.250000X0.262500X0.450000X-0.262500X0.450000X-0.262500X-0.450000X0.262500X-0.450000X0*%
%ADD17R,1.981200X0.558800*%
%ADD18RoundRect,0.250000X0.450000X-0.262500X0.450000X0.262500X-0.450000X0.262500X-0.450000X-0.262500X0*%
%ADD19RoundRect,0.250000X-0.262500X-0.450000X0.262500X-0.450000X0.262500X0.450000X-0.262500X0.450000X0*%
%ADD20RoundRect,0.147500X0.457500X0.147500X-0.457500X0.147500X-0.457500X-0.147500X0.457500X-0.147500X0*%
%ADD21R,2.000000X5.520000*%
%ADD22RoundRect,0.250000X0.250000X0.475000X-0.250000X0.475000X-0.250000X-0.475000X0.250000X-0.475000X0*%
%ADD23RoundRect,0.150000X-0.150000X0.512500X-0.150000X-0.512500X0.150000X-0.512500X0.150000X0.512500X0*%
%ADD24RoundRect,0.250000X-0.475000X0.250000X-0.475000X-0.250000X0.475000X-0.250000X0.475000X0.250000X0*%
%ADD25R,2.250000X2.150000*%
%ADD26RoundRect,0.250000X-0.450000X0.262500X-0.450000X-0.262500X0.450000X-0.262500X0.450000X0.262500X0*%
%ADD27R,1.016000X0.457200*%
%ADD28R,3.987900X4.314000*%
%ADD29RoundRect,0.250000X0.312500X0.625000X-0.312500X0.625000X-0.312500X-0.625000X0.312500X-0.625000X0*%
G04 APERTURE END LIST*
D10*
%TO.C,MOSFET1*%
G36*
X154263400Y-94995750D02*
G01*
X150275600Y-94995750D01*
X150275600Y-90677750D01*
X154263400Y-90677750D01*
X154263400Y-94995750D01*
G37*
%TD*%
D11*
%TO.C,D2*%
X144372500Y-98360000D03*
X144372500Y-93280000D03*
D12*
X135757500Y-95820000D03*
%TD*%
D13*
%TO.C,D3*%
X151520000Y-99241750D03*
X158320000Y-99241750D03*
%TD*%
D14*
%TO.C,C9*%
X133970000Y-116691750D03*
X133970000Y-114791750D03*
%TD*%
D15*
%TO.C,R5*%
X144372500Y-81540000D03*
X144372500Y-76860000D03*
%TD*%
D16*
%TO.C,R7*%
X155372500Y-76860000D03*
X153547500Y-76860000D03*
%TD*%
D17*
%TO.C,U1*%
X157420000Y-113971750D03*
X157420000Y-115241750D03*
X157420000Y-116511750D03*
X157420000Y-117781750D03*
X162144400Y-117781750D03*
X162144400Y-116511750D03*
X162144400Y-115241750D03*
X162144400Y-113971750D03*
%TD*%
D16*
%TO.C,R1*%
X136627500Y-126241750D03*
X138452500Y-126241750D03*
%TD*%
D18*
%TO.C,R4*%
X133365000Y-126154250D03*
X133365000Y-124329250D03*
%TD*%
D19*
%TO.C,R2*%
X151595000Y-115741750D03*
X153420000Y-115741750D03*
%TD*%
D20*
%TO.C,Q1*%
X127675000Y-126191750D03*
X127675000Y-124291750D03*
X125165000Y-125241750D03*
%TD*%
D21*
%TO.C,C4*%
X153384000Y-106871750D03*
X158590000Y-106871750D03*
%TD*%
D22*
%TO.C,C5*%
X153822500Y-82860000D03*
X151922500Y-82860000D03*
%TD*%
D23*
%TO.C,U2*%
X150822500Y-78062500D03*
X149872500Y-78062500D03*
X148922500Y-78062500D03*
X148922500Y-80337500D03*
X149872500Y-80337500D03*
X150822500Y-80337500D03*
%TD*%
D24*
%TO.C,C2*%
X165590000Y-116521750D03*
X165590000Y-118421750D03*
%TD*%
D14*
%TO.C,C10*%
X138000000Y-116691750D03*
X138000000Y-114791750D03*
%TD*%
D25*
%TO.C,D1*%
X119620000Y-125241750D03*
X115220000Y-125241750D03*
%TD*%
D14*
%TO.C,C6*%
X158372500Y-76860000D03*
X158372500Y-74960000D03*
%TD*%
D26*
%TO.C,R6*%
X168920000Y-99241750D03*
X168920000Y-101066750D03*
%TD*%
D16*
%TO.C,R3*%
X153420000Y-113241750D03*
X151595000Y-113241750D03*
%TD*%
D24*
%TO.C,C1*%
X169030000Y-116521750D03*
X169030000Y-118421750D03*
%TD*%
D27*
%TO.C,MOSFET1*%
X155762000Y-94741750D03*
X155762000Y-93471750D03*
X155762000Y-92201750D03*
X155762000Y-90931750D03*
X149920000Y-90931750D03*
X149920000Y-92201750D03*
X149920000Y-93471750D03*
X149920000Y-94741750D03*
D28*
X152269550Y-92834750D03*
%TD*%
D14*
%TO.C,C7*%
X179025000Y-112191750D03*
X179025000Y-110291750D03*
%TD*%
%TO.C,C8*%
X182000000Y-112191750D03*
X182000000Y-110291750D03*
%TD*%
D22*
%TO.C,C3*%
X153822500Y-85860000D03*
X151922500Y-85860000D03*
%TD*%
D29*
%TO.C,R8*%
X149790000Y-106851750D03*
X146865000Y-106851750D03*
%TD*%
M02*
