%TF.GenerationSoftware,KiCad,Pcbnew,9.0.2*%
%TF.CreationDate,2025-06-28T00:07:11+08:00*%
%TF.ProjectId,KAPTON-HEATERV2,4b415054-4f4e-42d4-9845-415445525632,rev?*%
%TF.SameCoordinates,Original*%
%TF.FileFunction,Soldermask,Top*%
%TF.FilePolarity,Negative*%
%FSLAX46Y46*%
G04 Gerber Fmt 4.6, Leading zero omitted, Abs format (unit mm)*
G04 Created by KiCad (PCBNEW 9.0.2) date 2025-06-28 00:07:11*
%MOMM*%
%LPD*%
G01*
G04 APERTURE LIST*
G04 Aperture macros list*
%AMRoundRect*
0 Rectangle with rounded corners*
0 $1 Rounding radius*
0 $2 $3 $4 $5 $6 $7 $8 $9 X,Y pos of 4 corners*
0 Add a 4 corners polygon primitive as box body*
4,1,4,$2,$3,$4,$5,$6,$7,$8,$9,$2,$3,0*
0 Add four circle primitives for the rounded corners*
1,1,$1+$1,$2,$3*
1,1,$1+$1,$4,$5*
1,1,$1+$1,$6,$7*
1,1,$1+$1,$8,$9*
0 Add four rect primitives between the rounded corners*
20,1,$1+$1,$2,$3,$4,$5,0*
20,1,$1+$1,$4,$5,$6,$7,0*
20,1,$1+$1,$6,$7,$8,$9,0*
20,1,$1+$1,$8,$9,$2,$3,0*%
G04 Aperture macros list end*
%ADD10C,0.000000*%
%ADD11C,1.712000*%
%ADD12RoundRect,0.102000X0.754000X0.754000X-0.754000X0.754000X-0.754000X-0.754000X0.754000X-0.754000X0*%
%ADD13R,3.050000X2.030000*%
%ADD14R,8.380000X10.660000*%
%ADD15RoundRect,0.257600X1.030400X-1.430400X1.030400X1.430400X-1.030400X1.430400X-1.030400X-1.430400X0*%
%ADD16RoundRect,0.250000X0.475000X-0.250000X0.475000X0.250000X-0.475000X0.250000X-0.475000X-0.250000X0*%
%ADD17RoundRect,0.102000X-1.858000X-1.858000X1.858000X-1.858000X1.858000X1.858000X-1.858000X1.858000X0*%
%ADD18C,3.920000*%
%ADD19O,1.404000X2.604000*%
%ADD20RoundRect,0.102000X1.710000X-1.320000X1.710000X1.320000X-1.710000X1.320000X-1.710000X-1.320000X0*%
%ADD21RoundRect,0.250000X0.262500X0.450000X-0.262500X0.450000X-0.262500X-0.450000X0.262500X-0.450000X0*%
%ADD22R,1.981200X0.558800*%
%ADD23RoundRect,0.102000X-0.754000X-0.754000X0.754000X-0.754000X0.754000X0.754000X-0.754000X0.754000X0*%
%ADD24RoundRect,0.250000X0.450000X-0.262500X0.450000X0.262500X-0.450000X0.262500X-0.450000X-0.262500X0*%
%ADD25RoundRect,0.250000X-0.262500X-0.450000X0.262500X-0.450000X0.262500X0.450000X-0.262500X0.450000X0*%
%ADD26RoundRect,0.198500X0.508500X0.198500X-0.508500X0.198500X-0.508500X-0.198500X0.508500X-0.198500X0*%
%ADD27RoundRect,0.102000X-1.000000X-2.760000X1.000000X-2.760000X1.000000X2.760000X-1.000000X2.760000X0*%
%ADD28RoundRect,0.250000X0.250000X0.475000X-0.250000X0.475000X-0.250000X-0.475000X0.250000X-0.475000X0*%
%ADD29RoundRect,0.150000X-0.150000X0.512500X-0.150000X-0.512500X0.150000X-0.512500X0.150000X0.512500X0*%
%ADD30RoundRect,0.250000X-0.475000X0.250000X-0.475000X-0.250000X0.475000X-0.250000X0.475000X0.250000X0*%
%ADD31RoundRect,0.102000X0.975000X-0.975000X0.975000X0.975000X-0.975000X0.975000X-0.975000X-0.975000X0*%
%ADD32C,2.154000*%
%ADD33C,4.420000*%
%ADD34R,2.250000X2.150000*%
%ADD35C,2.200000*%
%ADD36RoundRect,0.250000X-0.450000X0.262500X-0.450000X-0.262500X0.450000X-0.262500X0.450000X0.262500X0*%
%ADD37R,1.016000X0.457200*%
%ADD38R,3.987900X4.314000*%
%ADD39C,1.554000*%
%ADD40RoundRect,0.250000X0.312500X0.625000X-0.312500X0.625000X-0.312500X-0.625000X0.312500X-0.625000X0*%
%ADD41C,1.755000*%
%ADD42C,3.090000*%
G04 APERTURE END LIST*
D10*
%TO.C,MOSFET1*%
G36*
X154263400Y-94995750D02*
G01*
X150275600Y-94995750D01*
X150275600Y-90677750D01*
X154263400Y-90677750D01*
X154263400Y-94995750D01*
G37*
%TD*%
D11*
%TO.C,J3*%
X164750000Y-79700000D03*
X168250000Y-84700000D03*
X171750000Y-79700000D03*
X175250000Y-84700000D03*
X178750000Y-79700000D03*
X182250000Y-84700000D03*
X185750000Y-79700000D03*
X189250000Y-84700000D03*
X192750000Y-79700000D03*
D12*
X196250000Y-84700000D03*
%TD*%
D13*
%TO.C,D2*%
X144372500Y-98360000D03*
X144372500Y-93280000D03*
D14*
X135757500Y-95820000D03*
%TD*%
D15*
%TO.C,D3*%
X151520000Y-99241750D03*
X158320000Y-99241750D03*
%TD*%
D16*
%TO.C,C9*%
X133970000Y-116691750D03*
X133970000Y-114791750D03*
%TD*%
D17*
%TO.C,J1*%
X135722500Y-85360000D03*
D18*
X128522500Y-85360000D03*
D19*
X138872500Y-79360000D03*
X125372500Y-79360000D03*
%TD*%
D20*
%TO.C,R5*%
X144372500Y-81540000D03*
X144372500Y-76860000D03*
%TD*%
D21*
%TO.C,R7*%
X155372500Y-76860000D03*
X153547500Y-76860000D03*
%TD*%
D22*
%TO.C,U1*%
X157420000Y-113971750D03*
X157420000Y-115241750D03*
X157420000Y-116511750D03*
X157420000Y-117781750D03*
X162144400Y-117781750D03*
X162144400Y-116511750D03*
X162144400Y-115241750D03*
X162144400Y-113971750D03*
%TD*%
D21*
%TO.C,R1*%
X136627500Y-126241750D03*
X138452500Y-126241750D03*
%TD*%
D23*
%TO.C,J4*%
X149910000Y-121311750D03*
D11*
X153410000Y-126311750D03*
X156910000Y-121311750D03*
X160410000Y-126311750D03*
%TD*%
D24*
%TO.C,R4*%
X133365000Y-126154250D03*
X133365000Y-124329250D03*
%TD*%
D25*
%TO.C,R2*%
X151595000Y-115741750D03*
X153420000Y-115741750D03*
%TD*%
D26*
%TO.C,Q1*%
X127675000Y-126191750D03*
X127675000Y-124291750D03*
X125165000Y-125241750D03*
%TD*%
D27*
%TO.C,C4*%
X153384000Y-106871750D03*
X158590000Y-106871750D03*
%TD*%
D28*
%TO.C,C5*%
X153822500Y-82860000D03*
X151922500Y-82860000D03*
%TD*%
D29*
%TO.C,U2*%
X150822500Y-78062500D03*
X149872500Y-78062500D03*
X148922500Y-78062500D03*
X148922500Y-80337500D03*
X149872500Y-80337500D03*
X150822500Y-80337500D03*
%TD*%
D30*
%TO.C,C2*%
X165590000Y-116521750D03*
X165590000Y-118421750D03*
%TD*%
D16*
%TO.C,C10*%
X138000000Y-116691750D03*
X138000000Y-114791750D03*
%TD*%
D31*
%TO.C,J5*%
X185920000Y-108121750D03*
D32*
X185920000Y-105831750D03*
X185920000Y-103541750D03*
X185920000Y-101251750D03*
X185920000Y-98961750D03*
X188460000Y-109261750D03*
X188460000Y-106971750D03*
X188460000Y-104681750D03*
X188460000Y-102391750D03*
X188460000Y-100101750D03*
X191000000Y-108121750D03*
X191000000Y-105831750D03*
X191000000Y-103541750D03*
X191000000Y-101251750D03*
X191000000Y-98961750D03*
D33*
X188460000Y-116281750D03*
X188460000Y-91291750D03*
%TD*%
D34*
%TO.C,D1*%
X119620000Y-125241750D03*
X115220000Y-125241750D03*
%TD*%
D16*
%TO.C,C6*%
X158372500Y-76860000D03*
X158372500Y-74960000D03*
%TD*%
D35*
%TO.C,REF\u002A\u002A*%
X197000000Y-129000000D03*
%TD*%
D36*
%TO.C,R6*%
X168920000Y-99241750D03*
X168920000Y-101066750D03*
%TD*%
D21*
%TO.C,R3*%
X153420000Y-113241750D03*
X151595000Y-113241750D03*
%TD*%
D35*
%TO.C,REF\u002A\u002A*%
X197000000Y-72000000D03*
%TD*%
D30*
%TO.C,C1*%
X169030000Y-116521750D03*
X169030000Y-118421750D03*
%TD*%
D37*
%TO.C,MOSFET1*%
X155762000Y-94741750D03*
X155762000Y-93471750D03*
X155762000Y-92201750D03*
X155762000Y-90931750D03*
X149920000Y-90931750D03*
X149920000Y-92201750D03*
X149920000Y-93471750D03*
X149920000Y-94741750D03*
D38*
X152269550Y-92834750D03*
%TD*%
D35*
%TO.C,REF\u002A\u002A*%
X97000000Y-72000000D03*
%TD*%
D16*
%TO.C,C7*%
X179025000Y-112191750D03*
X179025000Y-110291750D03*
%TD*%
D39*
%TO.C,F1*%
X97500000Y-91460000D03*
X97500000Y-96540000D03*
%TD*%
D16*
%TO.C,C8*%
X182000000Y-112191750D03*
X182000000Y-110291750D03*
%TD*%
D28*
%TO.C,C3*%
X153822500Y-85860000D03*
X151922500Y-85860000D03*
%TD*%
D40*
%TO.C,R8*%
X149790000Y-106851750D03*
X146865000Y-106851750D03*
%TD*%
D35*
%TO.C,REF\u002A\u002A*%
X97000000Y-129000000D03*
%TD*%
D17*
%TO.C,J2*%
X111930000Y-85341750D03*
D18*
X104730000Y-85341750D03*
D19*
X115080000Y-79341750D03*
X101580000Y-79341750D03*
%TD*%
D41*
%TO.C,K1*%
X119500000Y-114000000D03*
X109340000Y-114000000D03*
D42*
X105530000Y-101300000D03*
X123310000Y-98760000D03*
%TD*%
M02*
