%TF.GenerationSoftware,KiCad,Pcbnew,9.0.2*%
%TF.CreationDate,2025-06-28T00:08:17+08:00*%
%TF.ProjectId,KAPTON-HEATERV2,4b415054-4f4e-42d4-9845-415445525632,rev?*%
%TF.SameCoordinates,Original*%
%TF.FileFunction,Soldermask,Bot*%
%TF.FilePolarity,Negative*%
%FSLAX46Y46*%
G04 Gerber Fmt 4.6, Leading zero omitted, Abs format (unit mm)*
G04 Created by KiCad (PCBNEW 9.0.2) date 2025-06-28 00:08:17*
%MOMM*%
%LPD*%
G01*
G04 APERTURE LIST*
G04 Aperture macros list*
%AMRoundRect*
0 Rectangle with rounded corners*
0 $1 Rounding radius*
0 $2 $3 $4 $5 $6 $7 $8 $9 X,Y pos of 4 corners*
0 Add a 4 corners polygon primitive as box body*
4,1,4,$2,$3,$4,$5,$6,$7,$8,$9,$2,$3,0*
0 Add four circle primitives for the rounded corners*
1,1,$1+$1,$2,$3*
1,1,$1+$1,$4,$5*
1,1,$1+$1,$6,$7*
1,1,$1+$1,$8,$9*
0 Add four rect primitives between the rounded corners*
20,1,$1+$1,$2,$3,$4,$5,0*
20,1,$1+$1,$4,$5,$6,$7,0*
20,1,$1+$1,$6,$7,$8,$9,0*
20,1,$1+$1,$8,$9,$2,$3,0*%
G04 Aperture macros list end*
%ADD10C,1.712000*%
%ADD11RoundRect,0.102000X0.754000X0.754000X-0.754000X0.754000X-0.754000X-0.754000X0.754000X-0.754000X0*%
%ADD12RoundRect,0.102000X-1.858000X-1.858000X1.858000X-1.858000X1.858000X1.858000X-1.858000X1.858000X0*%
%ADD13C,3.920000*%
%ADD14O,1.404000X2.604000*%
%ADD15RoundRect,0.102000X-0.754000X-0.754000X0.754000X-0.754000X0.754000X0.754000X-0.754000X0.754000X0*%
%ADD16RoundRect,0.102000X0.975000X-0.975000X0.975000X0.975000X-0.975000X0.975000X-0.975000X-0.975000X0*%
%ADD17C,2.154000*%
%ADD18C,4.420000*%
%ADD19C,2.200000*%
%ADD20C,1.554000*%
%ADD21C,1.755000*%
%ADD22C,3.090000*%
G04 APERTURE END LIST*
D10*
%TO.C,J3*%
X164750000Y-79700000D03*
X168250000Y-84700000D03*
X171750000Y-79700000D03*
X175250000Y-84700000D03*
X178750000Y-79700000D03*
X182250000Y-84700000D03*
X185750000Y-79700000D03*
X189250000Y-84700000D03*
X192750000Y-79700000D03*
D11*
X196250000Y-84700000D03*
%TD*%
D12*
%TO.C,J1*%
X135722500Y-85360000D03*
D13*
X128522500Y-85360000D03*
D14*
X138872500Y-79360000D03*
X125372500Y-79360000D03*
%TD*%
D15*
%TO.C,J4*%
X149910000Y-121311750D03*
D10*
X153410000Y-126311750D03*
X156910000Y-121311750D03*
X160410000Y-126311750D03*
%TD*%
D16*
%TO.C,J5*%
X185920000Y-108121750D03*
D17*
X185920000Y-105831750D03*
X185920000Y-103541750D03*
X185920000Y-101251750D03*
X185920000Y-98961750D03*
X188460000Y-109261750D03*
X188460000Y-106971750D03*
X188460000Y-104681750D03*
X188460000Y-102391750D03*
X188460000Y-100101750D03*
X191000000Y-108121750D03*
X191000000Y-105831750D03*
X191000000Y-103541750D03*
X191000000Y-101251750D03*
X191000000Y-98961750D03*
D18*
X188460000Y-116281750D03*
X188460000Y-91291750D03*
%TD*%
D19*
%TO.C,REF\u002A\u002A*%
X197000000Y-129000000D03*
%TD*%
%TO.C,REF\u002A\u002A*%
X197000000Y-72000000D03*
%TD*%
%TO.C,REF\u002A\u002A*%
X97000000Y-72000000D03*
%TD*%
D20*
%TO.C,F1*%
X97500000Y-91460000D03*
X97500000Y-96540000D03*
%TD*%
D19*
%TO.C,REF\u002A\u002A*%
X97000000Y-129000000D03*
%TD*%
D12*
%TO.C,J2*%
X111930000Y-85341750D03*
D13*
X104730000Y-85341750D03*
D14*
X115080000Y-79341750D03*
X101580000Y-79341750D03*
%TD*%
D21*
%TO.C,K1*%
X119500000Y-114000000D03*
X109340000Y-114000000D03*
D22*
X105530000Y-101300000D03*
X123310000Y-98760000D03*
%TD*%
M02*
