M48
; DRILL file {KiCad 9.0.2} date 2025-06-27T23:49:47+0800
; FORMAT={-:-/ absolute / metric / decimal}
; #@! TF.CreationDate,2025-06-27T23:49:47+08:00
; #@! TF.GenerationSoftware,Kicad,Pcbnew,9.0.2
; #@! TF.FileFunction,Plated,1,2,PTH
FMAT,2
METRIC
; #@! TA.AperFunction,Plated,PTH,ComponentDrill
T1C0.600
; #@! TA.AperFunction,Plated,PTH,ViaDrill
T2C0.800
; #@! TA.AperFunction,Plated,PTH,ComponentDrill
T3C0.900
; #@! TA.AperFunction,Plated,PTH,ComponentDrill
T4C1.000
; #@! TA.AperFunction,Plated,PTH,ComponentDrill
T5C1.170
; #@! TA.AperFunction,Plated,PTH,ComponentDrill
T6C1.300
; #@! TA.AperFunction,Plated,PTH,ComponentDrill
T7C2.060
; #@! TA.AperFunction,Plated,PTH,ComponentDrill
T8C2.700
; #@! TA.AperFunction,Plated,PTH,ComponentDrill
T9C3.200
%
G90
G05
T2
X130.49Y-124.262
X133.377Y-121.522
X133.92Y-112.242
X138.0Y-112.242
X148.92Y-113.242
X149.92Y-75.742
X149.92Y-82.742
X153.42Y-118.242
X153.42Y-120.742
X156.42Y-82.742
X156.42Y-85.742
X158.4Y-72.4
X161.92Y-100.742
X161.92Y-103.242
X161.92Y-105.742
X161.92Y-108.242
X164.42Y-103.242
X164.42Y-105.742
X165.62Y-121.042
X169.02Y-121.042
X179.025Y-107.742
X182.0Y-107.742
T3
X97.5Y-91.46
X97.5Y-96.54
T4
X149.91Y-121.312
X153.41Y-126.312
X156.91Y-121.312
X160.41Y-126.312
X164.75Y-79.7
X168.25Y-84.7
X171.75Y-79.7
X175.25Y-84.7
X178.75Y-79.7
X182.25Y-84.7
X185.75Y-79.7
X189.25Y-84.7
X192.75Y-79.7
X196.25Y-84.7
T5
X109.34Y-114.0
X119.5Y-114.0
T6
X185.92Y-98.962
X185.92Y-101.252
X185.92Y-103.542
X185.92Y-105.832
X185.92Y-108.122
X188.46Y-100.102
X188.46Y-102.392
X188.46Y-104.682
X188.46Y-106.972
X188.46Y-109.262
X191.0Y-98.962
X191.0Y-101.252
X191.0Y-103.542
X191.0Y-105.832
X191.0Y-108.122
T7
X105.53Y-101.3
X123.31Y-98.76
T8
X104.73Y-85.342
X111.93Y-85.342
X128.523Y-85.36
X135.722Y-85.36
T9
X188.46Y-91.292
X188.46Y-116.282
T1
G00X101.58Y-78.792
M15
G01X101.58Y-79.892
M16
G05
G00X115.08Y-78.792
M15
G01X115.08Y-79.892
M16
G05
G00X125.372Y-78.81
M15
G01X125.372Y-79.91
M16
G05
G00X138.873Y-78.81
M15
G01X138.873Y-79.91
M16
G05
M30
